<mxfile host="app.diagrams.net" modified="2023-06-16T15:01:52.155Z" agent="Mozilla/5.0 (Windows NT 10.0; Win64; x64) AppleWebKit/537.36 (KHTML, like Gecko) Chrome/113.0.0.0 Safari/537.36 OPR/99.0.0.0" etag="PLbScNlU-6FSc7MRjBNM" version="21.3.8" type="device">
  <diagram name="Seite-1" id="1Lfcv1JscwHjvBgKQqQj">
    <mxGraphModel dx="545" dy="348" grid="1" gridSize="10" guides="1" tooltips="1" connect="1" arrows="1" fold="1" page="1" pageScale="1" pageWidth="827" pageHeight="950" math="0" shadow="0">
      <root>
        <mxCell id="0" />
        <mxCell id="1" parent="0" />
        <mxCell id="7-Hqb6H97nyhliVRLqJK-5" value="Warehouse Manager" style="strokeWidth=1;shadow=0;dashed=0;align=center;html=1;shape=mxgraph.mockup.containers.window;align=left;verticalAlign=top;spacingLeft=8;strokeColor2=#008cff;strokeColor3=#c4c4c4;fontColor=#666666;mainText=;fontSize=17;labelBackgroundColor=none;whiteSpace=wrap;" vertex="1" parent="1">
          <mxGeometry x="140" y="130" width="550" height="380" as="geometry" />
        </mxCell>
        <mxCell id="7-Hqb6H97nyhliVRLqJK-8" value="" style="shape=image;verticalLabelPosition=bottom;labelBackgroundColor=default;verticalAlign=top;aspect=fixed;imageAspect=0;image=data:image/png,iVBORw0KGgoAAAANSUhEUgAAAZAAAAFNCAYAAAAuHzk9AAAABmJLR0QAAAAAAAD5Q7t/AAAACXBIWXMAAAr2AAAK9gHCr3ADAAAAB3RJTUUH4AMIDTgbzaYFWQAAIABJREFUeNrsvXmcZWdd5//+Ps855y61Vy/V3elOJ50OZCMJISMDRGSNgiLbIDgoP+WnuL1c8DeCoo6zuOGMg6P8xhlHHZWfIEFcQRRRthDAkEBIQvbudKf3rura7nbuOc/z/f1xzr1V1V29d1dVJ8/79bq91HLvWe59Ps93F1UlEAgEAoGzxYRLEAgEAoEgIIFAIBAIAhIIBAKBICCBQCAQCAISCAQCgUAQkEAgEAgEAQkEAoFAEJBAIBAIBAEJBAKBQBCQQCAQCASCgAQC54se93cg8EwkCpcgsBYWY1V36R24GKT4B6ogEu5lIAhIIHBRabfm+MqH/5dmWRtEmDv4JHNHDqz5BdghJAJWBCswcc1zue2Hf1lQRYJ6BIKABAIX1rJYblnVbvqVuU/9LnmziaJUk5h1ydr3pnoPe+ZyGrliEKYe/DL1dZv1ljf9mJzsXAOBpzMS2rkHLo56KO32HI99+i+0MncIzVK6rTnc/CR5p03z0bvB5X2pUV29BViB2BZuKK+g5cEIggBOtTg2gdwLu6czPAIoPs+4/o0/wm0/+itiVFGRICSBICCBwPlaHp/73V/S++/4bSYGIkbqESCFq0cK09f3V1q5CPv307yvBdAygiHCPz0+z8bhiIl6xPhQDedy5tspjcywYySiF6ExOOa6hoONLogptdJz2zt/k+u/7XtFUBRBCDZJ4OlPcGEFLvyuBLj/7z6g99/x34nihIYKlb5alAurSH+R1yKMfl6v1xOC3AudLEeMwZ5ic2StwRqPIHiUli8sEOcVAzgUFDre03CK6z+XQYwyWLE0Ug8CBuHO3/xpWpNH9Zu+56dFgiUSCAISCJz9pl9FmdrzmP7L7/wsNqkAylBicLr0B42cu9Whi4LWquCAzCmt1JH7HBCqsZ7UDhERVHMcHmMsKiCRYIxZEsgv7AhFdcGu6L3mSKVwcDVSLX7fWu77wK8yuGmrXveK7zqjkLqG4HvgUt8sBhdW4IJoR5nGqsAdP/oynX38ATzCWE1IIoMcl+dqzLkEzRe5hdQz11Vy53Fe8coSwRitCLUoWlZAVJXU+SUy4QGvSoQwMljFe0+zk3KwDVcOx+SL5E7LP4x45tPi0Tt5W6+z8+VvwufulGeRDI/yzW//xaAegWCBBAI9bfjkb/y4Hnv4K0hUoxrTF4/zdun0BUjp5sqBuRwrniS29GIrsUC9YhiKFGMsiV0uDqEYsYg3NHOlnWXkEhN5jxNBEWZbXQaT8ve8RwufVv+pioC64jEMJxZFaaZ54YrrtDjw93+El1PYV6rUJi6Ht/9ieOMEgoAEAgC77/ms7vrUHdi4hogwUjVFMPkCxANUBKPK0TbMtXO8ghPLcASD1hJbT2QMlM4m7xWsLKtDKsVP1WOlHsc4D7kKrUzp5IWFMp8W4uPVlHbP8WJUZmEBQwmoWprdQmWiWMCf2pKKbfjoBYKABAJ9X/5Dn/tbZtKcemTYOmj7Vdrn/LxQur6KhX//vKOdOhDBGGG0KozFhihS1Jv+wi4UmVFg0eV9WIgUQgNgDRgValVoO2G6I6h6RAzDSY73BhF/QsxCkJ6OMFoxiHq63lOPIjiVa1ihFgXvVSAISCDQd189+MmPYLQILhvLebX3WIgzKI2ucqTpyV0Ra6jEnnXVGGug7R0DajCLoh2K4MXQyE4UMBHFiBKLIbalQJUi5dSSWGFDHWY7SidX6nFE2s1JbISxbtlzUlEcynAlopk7DOBPd+J6+gugshC4PxshvzC7guMvXUhLDgQBCVwcCeGRez6n6dHDRIND1CuCiDmvRUdUUQNHW7BvJmMo8YhEDMfCaC3B4VEE44XMGZJIcT7C9X1HhZVxwkqtRTFgF0UyIYk8sTFEaoqfV8UC62qWRqY00hxQmpkjUUslAlUpn1sWLBEFbzyDiaFq9ZQeLFUhtor3GS5tLavIplrHEvUv4WmvZCkeWZbi8i721D40TFJHjCXPuqjLEInwPt0BsksEjInBmiJeZIq/z05wjvua9t8qvcNdyOQ+m7dI/3qcnbgGgoAE1jD3fvh/EFVqAAxXZOlqcU4bYCHLPE8ca+FUqDrLlhFDYgRfrj5GtajlM5B5g4pb5MSSU1pMWvqeUmdJnWLFU7cGa3rbfxiIoWJiJts5mVfybiE2xnDi8lUWJqrprYgnf30jSnf6EP/8Ey/R5VxdYiwTt72W697878TIGVoWIhx++Cv6yAd+lXTmcBmzOcXV3focWq0W6ewktGaRmoVsum9eRUkFWx1A4ioSJSS1MSoj60gGxkmGxqiNTxDVR7nsuhdIrT60/OnKSf69yGrtfb3VabP/vs/o7O570aOP47MOYsDaKoPbrqWy9Ua23fptYiUYRGtq6xjSeAPnS3NuZsfvveXGJ7qNNnGkXDUeo6dMQzqzNN6HjraZSR0GYetQhdGKJ7Kmv3jExmJMWaNxvq4bVbwYBowjsbZwbSFkQMc7JhtFDMRay2gVPObEDbeCNcpwHJW/f/JdtPPKTDdf9rgVUO+Ih8Z4/s/+f4xfc5NYG5/UbZXOH/v1r/3+e9598J/uQCrVM9iZK60sw2MRMVSMgEmJ4/ny0gr1ahUVh/riNTyKquJyxTtwOFQ9+yc9w1u2cNlNL2HbzS8jGRxF/VL3XmPqMGiO77boTB/GWqF97BDduSM0jx2hMXOMSvMAgzEYK0iUEIkDsYAH7xDvaXZg9AVv4Lp/+yuMbb5ajC38pKFoMwhI4BJFVdlz7+f0jp95Cz7L2DISMVIR/GmWsZMJiGpRZLh7tsOBOYeKZ0M1ZrQSo6IMRYq1QmxN+RwXZivaC9irGGLxDFjBqdDretVMYaaTgzFUI2EgkROsEFUwRhmKzGljHDlKO81PHSRSj1fPuhu/hQ033ras2DQOP8Whuz5OPncEiZIzPl/ni+7CglCNAEmJ4rnSPUdZBHriVTI+A/WoSXAS8fknOuBz6tZz1ZiSmIXbYcuGA8YUg4fEgCk7Gbcyy1ymiBjqJsOK0Fl/HfPrn0Na34SLB/FiqXRnGGjuY3TmIYaPfQOn0MYwcM3L2PbG/8AVN7xIiiMLLq0gIIFLTjxEhL//f39J7/uz90Mk7ByNMbI0RnCmAlKIh2EuzfnG0Q5eiyD2liFbuK20CIJvGKgi4i+SD6OoPBcjxAasOpRi4Zts5XTLisLBSkTcTxRYqFC3ovR2xic9PlEshorJz/AcFPX+JJ4r6ffkOhs6uSf3hXJWIsB0iaIGPeXLbVLIi/RyDJQ8rrNv+xvJKuNs2fsxavO7uXNXh6wsykyM8OLtQhIV7sHFh2WM6T/2TXtmOjm1SLBxncbmb+LotlfTnNrPyMF7WDd/kDxrAZ6oOsDs4BXMTtxEdcsVXLb3b5g4cieSd6DTZd13/TrXvuEnJbHV8IEMAhK4FAXk/W+6SZuH91NNLJcPmzNyJy1vgSh4w71H5ulmEBnD1uG4yLAq2+GO1SNi4aK7LVSLnliJXaiwV68cahaBecEwWpclu96egFhrTysI5qwE5MKTOcUVmkzVCmJSbDQLWlhe81SpRa6XFI11Xe573q/SHNiKaFHv8py7f5a7Hz7YFyIV5arxiJsmDLYSU6vWqdXrVGt1KrUaSb3GP9z5KNPTk9SMY/6af8NUdQcbDnyFkZnHqGsbjynv7aJoOxChdEyVxsbrOTh+DZe5PWx58s/Jc5AbX8+L3/1hSaI4fChXmDDSNnDuuw8R9j/+DT22+yEA6rGcRyyicEHcd6TJfKcIAa+vleKBoCrUYkNk5IIUJp7ByRU9sHTh+KzAaMWjGLxXplrZiZZCv1+WnvyxFj74UrRwsSIYATHFvRMjiBWcSfrdihXoVDfQHNiGcRniHV4MM+tugd4kyTKj6kDDcMttt3HzC17MNc/7V2y/5nomtl/J6KYJ/uLTj3N06ig2ijh8yzs51Ii59ut/xMTMN6hohpMIFYNXIfcLbjYVQyYG6zNGDn2NGx/6IAc6Izz8nHehyQB842P8y+/8gHrv++nfgZUhZGEFznnBB+GuD7yXuFpHgaHK+e1Hul441HKkuWfTQFS4VkoXStX0nn9l0m9EQY3S8UJFPFYEFaUWGabaSjPLiIwhdx6z6HC8GAbrVU4nE14V385WabUTtEwCEMAQAZ0iZq2FdeWp4vNW/1JH7aPE7aNkldHi2iCMHrkXWGptzc216dSGqMcx6jNwijjPJ77wMDMzh6nURjnw/J9g5JHPcsvsA/jIFi5CIxxtOvbPd5nLlDQrWsVUxFNLLNtHIrYMRuSqpCpc++THOTR/PQ9e906ue+A3mLvrT7hrZIve9vZfC6GQICCBtS8fQjdtse/Ln8PYCGss9Yiihcg5WCGqQrObkbvCdTSYxDS7HmOEgRgGBirFbneluteWLjMjSu6LmE7qBPUwFHuaeZFOPDYyykA1xpQTQ6wxjI6OgnendZHNzc2tWjfeuUaLNE2LdvQ2B2NJMIXlZWKuvHIH453BstqmuONbpv+YOyfeSosat07/DRs2Vfna7og8zfsDuLCwa/9Rbrh6G5Jm4JWp2Q733f84AwOW6VvewcQDH2NDey/eFOLTccI9B5s0MmXIGsbrEeNjMYgw1XQcmm/x2dmUocjyossHGKwIHsPGYw8RG8sjt/w8O+/+ZaY/8V/YfevtesWNLz3lVQ1dkIOABFbbfaXKoUfvU5e1UYTxWi9ufG4fTCNwpO3xqiTWEEuxcPWa5ka4FU/X7JUJqkLX0w9kR0awYnE+p+sdV42NL0wtRFDnTllF3lvAhoeHV+vu0enmdDodBKFWHUCljY0rZXt8y/zh/cQyd1wpxzQvnvoPpZxE5KIMV5RWV5Gy5b01hiefPMYNV2xCuzniPR/62N1UTU732jdRP7abDe2nihRihP3zGbuOddk8mPCCbVXGBqpUY4vYCCMQW0vXeabm29yzb45P7m5ww/qEazdUcKqsO3IfaWWEAzvewMSuv+aRP/33bL/xcygwPzdfdDOwhjgu4iPWWuIoLHtBQAKrrCDC3ge/SivtEhnLcCUq+k+di/VR+uL3zXYBoRoZxAh4LVJ3y9xQWdXTXZheaAUS42h72H14jmu3rUNzWToYSzmlG6sXD1mdnbD2z0XEMDQ0hJoYmxQy4Tzs3XMEl6TH/8aS5/AYdowLM+0E14uFeJiemoF2h7zd5Ru7j9JozxCNbqe19QVc+elfxscRIspU07NvtstzNlfYOlQDY1BVuk6JRMEIeTnga8NQjW+7tsa2AzN8dtc0cazsGK7grOWy/XfyyC0/wHos7QfuZM/X79Ro3dV8+u77QSGKI2rVKgpctW0TN+y8/IwuejEfJlgqQUACFwXvHK1MiWyxM1c5t+hEUWfhmU0dViyjlUI8nIJBqVXiYmVaJQnRMgvLSOG2EiniMa3c0+6mHJhqMzJQPatohsUTR3b1PvjWFM4pgXUbNuC0RZxUimp6lJdddTVxkkAUg7WFiSjlQwX1OZIr6h3f4jLybkaSd5nOKgz7Ju3ZGbLU8eDu/XiF9NmvZv1d/5s4jvACc6ljb6PLtRsqrB9IilgSS7PzDIvqaVTJEa7ZNIJX+MKTx1iXVBitCTnC+J4vcOiatzLxtd/ji+//Ma78oQ9hXRWDkNgYMYqK5fFHH2Hvow/o8WK+eJPQ49WvfrVYa4PLKwhI4GL5eJZO8Ds3DMoTMxlGwGrGUDJEPTasr5tyDIeu9mkWR9ArilBhwBYZS5aY/UenGa5NcKYp8QpgLPEyCQHLLVa6aFrXqepr9JTfP+7r/dcwVJIqasAmrth1G4Od2IiNE9S7osDSU6TvOo/mDhyoT/G5Q3PPYR3m96PX0YmqbHO7+da5v8RlbQ4cm8cTY0yFre4oWnbZPNZSttQTxqoxLlfUKOq0tIqkvA6+7KkmZAreF90Adm4YYLLR5d4jLV66fQBBGT7yAHuu/27G6x/BHHmQf/yrD3HLy96EGMHjyPMUizI1M01nfvqE62uMwTm35NrPNBq/PjQw8LNJcHkFAQmsYUsGwxPTHVKnDNdijPFMDEaIQIzHq2G1N4BlqyuMFHLmFOpWmMo9++ZTnqVFTrwu2skaTjIWpLRirDEnSGPFCH/yaIYxhiMtzwsnLM/dGIEWFfG75ywfe6pDhGDEMFIp0otfu90SW2HPvOVv9y58f7RSvMJrLo+oxYvlRAqbTj1OwTmHuiJ3Voyh1ulCpwve4fIcXI7mDu+Kh3OOPPe43JF5z98PvYJUHZOHHifetp1/sTdz3eQnmDrapL55G6PpdFGSjtJxhXtv40BcxJVE8F7AaCESLseLAhEmScic4L3De99/PGt9jb2zbQ43MiYGIxIjbNjzeebX38LgU5+h9dSDDI9+P2IMnW6LxlyKB7pZxrFjx07qpuwJuKqy/u1/9O6//rlvf/d33rozmB9BQAJrFQVSB83cMOKg0VW8eqwUbhaR87FvLtAxlvUb87nD+0JMOk5oZw5jfDnzveyflWd450hdxkClRnTcDlZE6Ha77N47eYK10VHhA0+s46pal6c6Md841uGn5yfpaoSgfKNV4TMHBkEEK0IkOakKDxxp89aNczzQ+z6CESGWnFQN9x9u8L2bZvuz6Y1VnFfAc2x6BkwbiWb7O/6xTFADzuV4LQTDuWIRz/O86I/li4U2U2FuZBSDZXR8FEF5aOQ29sRXUX9DG6mPU7n/w/TGB7c7XYYrRfdj5xVjDeqLmFCWO1oKldiSVWKq3S42TsjL7zvnUFVGKpaJmmGq45kYAC+W4f1fZvrZLyHe+3lkbjfrhscw1jDfjJifLTLenFc6nc4J7qu+a9E5jPd4hNGozsOPH+I7rtm0Ngz+eh0xa6t0LwhIYA0piUOlyLp5dDpnU90yUjVL6ixW1wIxqDe98SFF0oAaXA57Dx5EnMfpUptjaChn4+hoOeBqgVyh67IlAmIEPj89TGLKlvHA3nbE/lQYtd3i91yEMxAtyngTFe6ZrfGmdcdwzuBk6fdBuWeuyus3HCNSLZIWnCnawwBHpiYR08XGzb5QNxqtBeHU4lz9omLIvrtNHapCtq2KEcPA4CjOFY7HZm0LcV3A51SaM2VSgZArDEbF66sUbVqMQiZCs+sZrQpp7khzR0MsiekQV6r91/XeoyJcPlrh8WNZ6V6E0W6TA1QYVGWDzDC6cQBrI7IjaXGsFJZWlmUnugjL+7vpqmtZt249AO97PsAsf/IPn10TpYkvfu617NixY01ZQ0FAAmsQodnx7M0911cqa0JAFmylhXW5l2WlKN55BEXM0i69jUaTRqO57LMtDhgrkHvlsVZlSZ/fRODOmRFet36KfHHblMVHJVDF4cTRay5xfCSkahQrOahFRMi9I/fFz8w25pEoI0kWduZpm0UDO05+OSYHn82hiRfiJEYo3EuySLjoDezKm/3qfhsZIitlqYz040uznYxKHBWdjsuJkaqOzBu67TZJHPcXe4cykEQYUsAUry2FCy7XmA06ye4n9iA2ot1u9691z4Ja9nRk4Vwf+PrXOXbsGC9+yUvCxzEISODSsUJ0kYysbdezOW6BXXYkxhkGbwSl4SIOZRGqZaV6+RoPt2OaGlERV8iVj1DjcWXnYoA3bpzBqClErZzQqLii0lzhDRumiLRX7gi5hzwvCjPnWl1UcjI6C+eggpecTm5OmY7cigfoDD0bKbsWn/RalfdWRIhEEF3Iq9PSmmt2hTjS/rQp6c23V6WVK0bcot8Ar2CNIL3hYupwJsE5Tw7s3fsUiCGKYpJKXL6OLhG5xS4sXbRTiaLoDHqaBYKABALn5di6MJppBQ50K2yrZBiE8dhRMWWrEVGamVBJoBbBVdW0yLYyQqyeTA1fb9a4spYRWRiLc4RCZBKKGMVn54bYVs8ZNXm5KNOfG1y8fk4SL7h2bNnoZDg+dZt0nfw82Rcf4hsveR82T096SZytIi4FtGjFL0K2qFpfpGiRP9nMGa5USvuliH9NtR0V0XI2/UKmmvOeJLL0xoN1xaI+x3nP7k6dK9MWYgyqFZJKvMglV4jIKfYuXHPddeHtHQQkcKktxVJWm4sspO8qRaXzWjBIFtqbn+5wTj+horcQCpCI8umZAY50Y6Do97QvjfqZXV9v1XlZMkc7Fx5PLREGYywRGV1vcBrTcZbbRuc5lhkiFGNiYjJSL3hiPnhoHT+65fBJz8uXZyUU/9ZeYoDoKW+ccbOltbD8GStCNxmGziwAFVMUjmY9C06LmE89UfbOOh6d6nD5cIyKcKRRTIO8cjghV4d4wRoD6ml0uwwmC1ZCSyMsSleFKbuJocNFttXg2CiDQ8PF+ehCqvAJriz1tNtNpqaK/35t3yzPve4qbty6YU18RrZPTKw5kzwISGANuK2KBcsDqfO0ncE5mEsV55RIzClbg6yUcjjnme7kGCNEosXCfJK5H4ogqqT+uK1t//mUSs9FIsq+LOJgGpMY31+Ge7OZBPjq3CC3j00XA5oETNlu3tCr8VMms4RmXuzSF6/5ImBVmXGGudwyFPl+QLvnDlI9sTX3mWa/KYK4LgsjzpdKiYjQGZyAzlOgSmQskYE096jahTnpDq5dV2Ff03HXvg7WwFWjVbYMCTke64ram9w7LEKzC6M1QAziHbPrrkHm9+Gdoy01OmkTUah2K4AUbr3S8pifn6dSOXFo1sFHH+yf059OX8Ptr9jBK267NqTxBgEJrNk3oVESEzHfzenmOSNVi9cilfJQS7lyRHC9bf8qkrrC3eOd4gzsn81Jc8dovejbtDRUUCzR7a5bVj+MXRAQAe6eGyASxXm4frDDWJQxbGPa3rAnjZnKDI+3B05RVClYcmr25N83eOpl14ALW5upWNfB2RrWgHMG6ccrCiVqrL8Gjt6NiimSedUzNjDA0UYbowtC4xW2Dgpbh8rRvGXnX8qYkHqPEaHlBGsNw0lRmOjyjNmrbyf68vvJvDB81c0cOniwyNiywvaytiNNO6RpSpIky7qxFl+vd337Dbz42s3hA3oKwjyQwIU0JM4Jh3Dzpgjni6aFrdTRqxnYP5f2O2istottrufiF6XjDGnmcHi2D1UWb9n7F0NPttwv8sapKl0v7OlUEGBTVXnrxCSvGGvwXZuO8b2bJ8m9ITbKnbODy0xi72VwwavWzWGWKV1UIFN4zdg8keiiYYl6wW68cV3ytMtDX/sqxpSTqrxDy0e+7WYOd+PSJVdkq3lNGa5WikC26iIXoUE9OFfM93C+mFilWs77EEPL54xXDcYIKsL00HYiP09+eDfHugkv/LbXcWjvfg7t3c/c1LGit1p5xr16llPNbAHlP73pRXL5hhEJ80WCBRK4CDjvcF7J1fd3kee2AClXjVWoRy1yrxxLPZuj4gPfzIoeWYPJKu51FHIvpHlObxL6TLtL0b3cMjF44pwSESHNPXMdt7z4qTDbLoLWHTUY75iIlGuiWZ6Y9vRq2C3K9dVZZlyVdpZztJWzyeRYA6JtqqZoNX9l1GQkb3Egr57wfcrvj7kWe2eKg6lZoRIX63bkTVHjwrn2MvNE3TmigSGefdNz8aqMHL2XLY98gCdnhXv2e4avuhF53v/F+L2/SxxXyB1UIkPNCBLVmJ1r94eHLRgusiAqFNlk1gpt56gaYTCxRSaXdxy74sV0vvCHpF142U+8l8tvuI7/MfW75HnO+k0b8N6TuZznv/A2XvuqV/af/1TtZ6LIFl2GJcxbDwISuOCL6vi2Z9F2RTbMZOqYqBs8Z/9h09Jr/qzxhAcnO3RypZYUfnJB6bocSFbnNMu2I/O569sTXpX5rDjHzYMRYgV1ZVRh0annTvAqJ42B9L4e47l94NDC7y3qG5krPL+2tPXG5qHmsvej42CdafOqofby3/d904iWETTvpdBmVAxU+nt0OalpqcdZUMUFcazf8wn2Xf8DiDqMS9n8yIcwWZOdA/DFNhy97zOMX/ciDo9dz2WtR8ELja5htOIZEsfQxlH2Tc0hi6yRBRERjEK1EpFmjgihmhS2llHloBlnXiK6MwepbNjG7f/2hyTPPb/wnnerV2V4ZIStl29H1TNUr101Ojy46+wEMohHEJDABffpbL/+FqJKFZe2eXK2zZaBAdSffbaUUOT0XzUW842pFGugYilrGYRkldo39LKkvCoz7RzBgCiZU3JXxGQGYqHRLfpiGdElbc+zcpjJ2XZyFTnu4pzhRZQz/b4oeeZomCJZNzdAVASpez9spEgf7h2/lMIii4VkURfbkYN3UZ/dRbe2nvr0o4j25r0Lt++Ajz0W8ehH34f5N+8i+upeNsddvHrmMmGoUqXi2ly1oUYrE3IHmctL8fWgisHTzR2xFWKRoi8ZnqlojKnn/zDtv/sVJMt54ff8HIglSSJe8fKXyKnua+D8CTGQwDkztn6TjF++E/GeYx2hnZ97qq0C62qGxEo5r1vKImYljlbpbVpmM021YTr1zGQOp8pcWhS+RbZYUCfnUvbOpEy2fFFfUS6dmctPGbtZPde60HGGZldpdD3NLrS6ynzHlw/HfOpopJ5W5ml2He1caedK13vyJTGLwg2kYok7k9SnH+61aSzPUdkwAFeOWdJulyc/9xGmXvkLTLlq4fxyntlmm9nckjnB+pTEdRjQjCoZCTlWcxDBWNtPSxOU6Txh33PfztG//VW6s0cwW2/mld/9I2JOIw5BPIIFElh9DxYCvPLtP8Uf/sSbSWoDHGxlXD5kORcVEZThasxgYso4gxYTCL1iZeVmoR/vupjvOvbNd4s6FIXJDuydzahYZdBadqyvLFGDnih4VSaGKssesgCZhz3T2aolB3RyT9t5BEPF5qhxpL6wM1TAimJUiga6AlY8UWmBFZ2EFYvvD10yKJEpzCcRwaosck/Ci7YJhxow+eSDPPiR99K9/ftJn/hnJqa+jo0rdNKUdgpxZLHWYjHkmuOd4vHFqGTKyvs85cDItRy+7juZvvNwnJyUAAAgAElEQVT/kM0fpb5hJz//x5+RnmEUNGKFPiNnOsMgEDiZivzY88ZVvGO8HvPcibhYeuXUC745zi2lpTn8wNGU+492uGY8KbNz4NbLBsm9W7GdYy/ukXvhkakOuev5/j27ph0dp3gn3L5zkI31czumuczzFw/NsTrGlVC1Qj02gKNiLfXEkSTtom4QwRrBaJEyW4mkiMsYjym7/IpRjBpsaQ0YU7RdMVJ0prLGF/NSyrqVyBTZVX/5kNLsZtjaMDd+73uoH93Npof+inXVCCUr3gVyoommZWXMXOp4cud34DftZP8dv4Cow8Uj/Oc/v5vN23ZIrw7lQmw2/uijH1/y/+9747eHz3wQkMCFFpA/eM8P6L2fuIM4NnzzZVWskdOG0s2ycQ0ld8JfPTrHzrGicV5khJs31cnVr2gwU1B2T+fMpEXHXCNwtKUcauQoyk2b6ty0ISY/x/KU+czz0YfmiO3qbJW7HowXjClm0NdjRxJ36BUXRmWV+BVjhqvGhNm28LWjDksx1qMoYCwsDzGl1YEvBMQUvbgKUSl+LpJiTG3XG750QDnWyjGqbLnlFazf+VzW24yB6Seozu6l0pgsLB0K0ekOrqczso3OuquZ1Jj53fcw/8Cn8Zlj+/O+hXf+1kfuGVu34dbziW0cLxanI4hJcGEFzn+VRdVz08tfw1c/eQedHOYyw3hFz9G/L+TqqS0Sl9WKf6hCEimJt8WMigwOzOdYgdFaxHXroqKbrZzJcy2t+kYWlRYoZdn4ygpJlnvSHMBjjWE+dcVM9LLtuRFPJRKeXdTpUa8IeQYH2oWoC8W0QCPar4QvrA/FGIeIYjH9YLw1EFFYLleNOupRxL45z/77Ps3++/6J+sA6ttz6rWy8+fuIR8aLtHAFrKU1tZ/ZR+5m8hN/jOvMYcXTzRyv/uF/z/f91H8U5dySFc5WNI7/3SAiwQIJnLerRziy70n9te/612TtNuvqMbdujsm9nHJxXc4CEeBQM+erh1M21Q2qylgtYsdoFYdbQQukqAifanUxYnBe+dLBDs1uMR78NVcPUj8LYVOF2bZnKs2Z63jmUk8jzzEYZrpKo+uKzKIVvHcdV7Rz17LaW4xHpNtvsOi9UjNw8yYYTqDdhXsPFgkFZZ1dP9YgwMBIMUkybTrconEbRiCy9FOcC5GBOIbMQTsrMvBkkasrToRKfQRjIW/M4LPie7nChssmeMGr3sxrvv+n2Lz1SinmfMhZi/D5iMfFtkR27VqaZbxjx45ggQSehruPUiE2br1CRie26dHdjzDZdHRdgjXntqtupkI9WticV4xBxbMosWdFTKtcF2o+iniwQSTnm7eNMBBpf9E7U0ESo4wnwnjFAhGq8SJ3lvLRx5qspDcriSo4l2Px/ZRc08twEsOmy69k49btjG2/mg0TWxjfMMFLxzcwNDbGhi3bSeKEDROXnXYDKiIc2POYqrFLrsfhA/uWFPGljTnuuetT3PXJjzF9+CnSzhwGcCpsu+Zarn3ei/i27/4hnnXDc4scvX6RoSzafqyMeLRySBVy4Df+7J/oVdAAvOstt52XaEy3ujSaTbKs6FQcx5bp1sOM1ZM1KSbBAglcED7/Vx/QD/zc24nqA9ywPmbLYHTKOMhyFogRuHt/SuYdG+oRtVioJYbxil1Z/QDamWe+jH/kTrnrQMrmgZgXbquWO+8zPxpVZS71eLe8zyse2cjOH34fPs9WzD933S3/6iM2Sr7rwN5dOnXoIIMjw8zPTSMIURxz6zffLmdyXqe6DloWLZ5LXCLLuoixRMvM5Djd677zne886fduuu0V53zZnC87tCg4hZTCKvLUOL7Q9WyEZNeuXRyeaXBkapp2u0Oa5X1rVIBKHFGrVdm4boyJ0cE1JSJBQAIXxOWjCO+4saqVqML6gYSbN9iycd7ZCcind7fZPCTsHK9iy4aEC3PRV+x0aGaOZjcvWpI4z/2HM1797CEWJtOeuYV1OgEZ2nwFb/j9L62pxNOFRXrhPBdHcuSMr8HJuhUv/Wr/uZez7Bb98Kma5J9KOHqMbtvB2Nh6hoeHz1Zz+4fiS/ddptChEBNliOPL6s5ERHbt2sWuA5NMHpumk+Wn/NlqHLF+fIwdW9avGREJhYSBC7DYFB/pm176GpzAsU6GU7MwzvSMHUfQzIXEChbFi/TFY0W3OaJL3Cu5F269rF4URS/ZGz59Wc41dPKvnO6unv6rC63fT/3D5yMeEDM4OEwcxyfMRT8T8egdiimbe1qBmF7b/f6Erj6/8Wd3npF4HDp69LTiAdDJcg4dPcquA5MnxEmCgAQu4cWm+Pt5r3g9eQ7zHc/dB5pE1qJn28ZDHfOZ0iznZfcb663sGZHr0v1xXPZrD32R1h5nJh4Qj28gSSpYW8yFP3U796Xv78UdoXsiYsuHERCWF4CTiUjPbTV5bLqosTlDcg+Tx6Y5PNNYEyISBCRwwdw+N7/sO2Xd5TvBOw624NHJtHRL6Bk9gVfIvAd1PHy0zTeOtIqeU6vkwqE/fVCCcFzi4gEwPDzQr5xfbib6cjy1Zw9P7dlzwmZJFi2gRZSmw9nayUemps/I8ljOEjkyNR0skMDTSD9EqQ0M8vMf/NQriYr4xcNTGWnmF/nST7e7EuKoFzAX/Onnxl488VjS60n6o2UvsOYSZk2sHNbakxSwnpxdu3aRnsTd1bdMWDziWM/ICpludWm3O+d8Lu12h+lWNwhI4OlB0fxQGRoa+9SP/JffBwxOlTv3t8uxr6deLBXoeiWxDlEL6CLf8oobU3jx/Tnsmfdgy7nsF1CcrIBHaeZBRS629XG6e7J0mNQC3/LSl7Jz584Lety7du2i0WySnoP10SPNchrN5qq7sYKABC6ciJSdWb/p9tfL825/PS7v0ux67j3cBV/MNT+lBeIcFSP9mXqmHH+6aoJYiljmIeH0x38GT4oYQY0wneY8Mpny1YMpu6fS8OZZAXqTCM9I5M/WkjxLssyd19ZIy+dYbUIhYeAiiAj82G/+Hzm6f7fufeAeDsxlHB6ybBqM8Cdt/yF0PcTW9HfoZpVG2R6fPOa06Ot0Jlmr6pXW8Q2yFBrdYjrhbNcxn3pyLxjxNBptrnnOC8MbZwWsj7m5JiMj431L45Q1LKetcSneI157AlIvGz4+swgCErgYSzAgfO8v/jfe+7ZvJc+6fGl/m1fvHCIxC37j5RbfxdXYRlYxWVbLrCuBLPNYe3pbSICWE/7+iSaJWaogkRUidf325pEoc87yf//2R7jtVa8LEfoVIDt2lO7ERqIoWjLO9mRCcXxNih43mdEvemjfmXNmtzKOLWcWGTz5ey2ObRCQwNPUCkG56vpb5HU//ov6wV9+J0ltgL97tIkpZwLF1iLiESAxhiQSmplnrLJoKp5ZnclxRQykrKJWmMrgrr3NMzoW5xUrisMv+rAvzMZAlEa7y3W3v5G3vetX2bx1u6Dl7JPw1rnYEkKjMUccJ/1g+uKg+nL3dzlvlmehGj3vWyFnfvd27NjBdOthKnF0TllYUFSnDw4MrHpBYRCQwMURkfID9erv+wmZ3LdXP/3nf0SeNTGu8EupF9QUAtLGQ1r0nxqrLLwlo1VaUQsXR7nPE087hWZ/ROuZ7Q51iXCA0aJz8ZEs4ef+8G+45YUvkcWukiAeK8PMU7uw1jI6uo4oivrCsVg8TmqRlA9XikemPetj8KzdV2P1hFqtSidrnNN51GrVfn+sICCBpyW9Jn1v+4X/Km/7hf9a7tA9xw4f0H/3qptpt1skUcTGgQgBurkuchko1qy8id5vva4LFedd5zDLVBovh1el3UlP0JpWJeGbXvv9vPc9vyaDQ0MLwhFG550155t9NfXkY3AFDA+PEUVRv7Bw8f0QERC75I733FU9y8MBXgfxZ+m+6rFx3RjtduesrZBqHLFx3diauBdBQAIX0QopXDOLmyhZYxgcGZO3/NL79dGP/zFjh77GZYOCwXCk43lociEjKbYrPcpWywrlvL+IOO9pRoOYSvUMflsZHF7H9/3gT5Jl6RJRet6LXsLWK3eIERNmrq4Bpp58jM6m7YyMDJMkVZy1ZYW54FUQ74kHBpcMR+zHPUq3lefcxWPHjh2waxfN1hiHjh4942r0yMD68bXTVDEISOCiSogs/myVf9fqAyQHHmD8qbvwtkrqYwQhdfQFQyliIysZRleKCXuL25jMdzr82L//77zsjW+9AEUgC3MxgnysPs1De2geAurjHDbDfQFpOKip4dYbB5cG0Skz9CiaJypn30r+BBEpuVSbKQYBCawKd37qE1wmCc47uhpj1JOqLDE4YrPCBXaqqBH8opftdByDGzZcKD0NwrEWaR3jEwcGGC3/O1fep5tvLOdU9RkqXVrnJxzLichAvXpJtnMPAhJYcY4dO/aOxvQkUlsUaxCh23VLYgKRWfk6V1FZqJwHOrkyvmFzuGnPAGYWmxoAjHDicOYLvwXoubMmRgeXHSg1ODCwZgdKBQEJrDhH9u35X520BbWljcG7zi/MfVCI7Qrv18uXW1yt3Eodm7ZeEQyHZywrc+t7wrBr165ls6vW6ljbICCBFWfqyEHyToqyNDCdeumLhwKxKH4FnT6iAsb3G3MLkHplcGgo3LTAigrJpULohRVYcVzWLWaKL168BTLvEBQRpRrJkmrhlaBwV5j+1EFFiYcnjnNrBFab973vfeEiBAEJBJbST2VUiETKjKUVtEAWDxkq046HN19WHJIEBQkEgoAE1iQCZIuS4ePYrMquvx80VUHVMTC2rji+oB+BQBCQwNqlW04f9Ag1WR2vUe561kYxIXFi29WlnoQ4+loiuLGCgAQCpfkhdDMte18VkzhWq9GoVzBlIaHzwuD4xr6FFAgEgoAEVhkbxRhZmsI7kwnJou6JcWRWxQLxquiidN7xrZeHGxYInISQxhtYcdZvuoxKpbJEINpZhpFeF1wlsquzt/Hq6UXQVT3D6zeGG/YMYPrDP33C15abZR4IFkhgldl42bb3xtXaQkMIUTquaGZXZF0JibErmsLbI8eAFgWNDsP4+i3lcYQo+lrjQsVBTvY873rLbRfk+S/U8wQBCQSAsfF1Pzs8vqHc6VtEhdS5vqAYAYNfhcCDLqTxKsSVGiZJ+qIWCASCgATWAFff9u3cvWeS/XNdDjdyGmneX6OLuQwrLR30e3ZL2S5XogQbV8LNehpbIaf7/fO1Hp7O1kcQkMCqoMAbf/w98rbf+gse79T43OPTzLZ9f4JfEWBfyTkgC0emi/qt+qhKXAkC8nQVkTP9vXMVgae7eAQBCawKAkRRwgtvf6188N4D8qP/86NUBgb637dFMARZwRiIqOLF9kVLELyxRHHlveGOPf1E5Gx//mzF4JkgHuXnJgQHA6tkiWgRQH/ysUf1f/7gy6m7NgC1SLh6fRWzgpP7FEW9cKzd7ds+jZFtvOMPPy/VWj3crEuIU428vRCB91NlZz1ThKNHSOMNrN7upSwcbLcaRJotmMUirIYTS3Vh+oMIZJIQxUm4UU9za+RseaaJxKkILqzAqtNuzoP39KLYxhSjZVc2ki5LGl4J4GyVKAp7rEAgWCCBNYt6T+7AlPsZ9cV8cllBG0RU8Rh6XjP1noF1YRJhIBAskMCap6i00OOMjhW0QERQXegGrOqpjk+EGxMIBAEJBE6P8wsV58551m3dES5KIBAEJBA4PX6RxyxNHcPj68NFCQSCgATW9JtQzJpoFOJ8ORcdaDrHxLYrw80JBIKABNYySbWGtdEaaFe40Mq93XWMbdwUbk4gEAQksNYpmogIXhf6UukKSooAznt6bRO7acb4lsskdOENBE5OSOMNrAkLJDcGsiILKnW9ZXxlF+9MAS0ywbpJnaqNw80JBIIFEljLDI2Ok/uFvUzufZlSu1JtTMq/VRERVKEWakACgSAggbXP8NiYdG3Sl4vcg+rKWSCC4nSppAyt3xJuTCAQBCSw1qnXB3BRraw8h9wpuejiziIXHa9L/z08cVm4MYFAEJDApcDEldfgvQOFXLUs6lup5F4h99p/Ne896y67PNyUQCAISOBSYNsNt+By329o2O6uoH4o+EVjDbxXhteHFN5AIAhI4JLgquuup50WqiFAs5utXHGh6BIBcV5ZvzVYIIFAEJDAJcHOG25lLu3NBBHmc13Rbu6LB6s5hZF1wQIJBIKABC4JtmzeIs5WAEVEaXaLmMTKTMwUnF/0oYhiaoPDhGGdgUAQkMAlwvptV6FapPC2M98v6rvo1kdPqMq6c5tUsHENkaAggUAQkMAlwearruuLhgDt3LEikfSF3imIemxcx8QxrIkWj4FAEJBA4PQCcuXOfj2GCDTzlXp7KtYIcWSp2gibRMRhFnogEAQkcOmwYev2JdlQra5fkdcVEeoW6lZIIiFpz5A2ZkIfxUAgCEjgUmFobH25ZhcB9E6+cq8txvSD5pp1OPbU48GDFQgEAQlcEiiMbtyCjSuoGkBI83zFMqGMMfRMjsRa9j74lXBPAoEgIIFLAoH1m7di42o/8ypTv2IzQWRRuldkDU/d98VC10IubyAQBCSw5g0QhkZHpW0NIoKgZN4saXJ40Y9ApBAMIxx98EsnCEsgEAgCEliTBogyODiMNzVEPQp4pwsTClfgCKKyjQoII2Ts2/tYMD8CgSAggUtBQgBGt12N1xwQMu9xgOjKOLIWFw6ODyTsuueucFsCgSAggbNBVWk15mk35+mUj7TVIG016Lbny0eDrD1Pt1U80tY8nVbjvGMG2559I965/kDbbuZKN9LFlxAx0j//OEnYf/+XwpshEDgFYSb6M0QQzsaXLyL8zFteqVuSjI11Q2RgJBGsCAOVqAxyK0Y9nbzoXjudK22p8YN/8Fk5n9fefs0NPNDJqQ9WQKHR9YxWpT9s6qJfIyn6AYtYWk89XBapa//rgUAgCMgzCuc9B+6/U+/9lbdiq/WT/pwHHjiU4oGN7SaZKAcQnFeu3VBhIDY0tQg2U8576i2pVQcuzfiTN12pgpCnLd760T1SiStndazX3Pw8PpTm1AeL5250BSOeXC/u8i29AHr5Kh7Qw4/y6Cc/qDtf/iaxNg5vpEAgCMgzj7v/+e/07973c/zruse1mydfRFXotjpcu75CNBAjAjMdx64ZvxBe7lkTS+0MhHLn3moXX+q0EDl7D+n2K6+W1NMPnTcyB8T0Fesii0jfWaZK4pX7fuenmLzrL/S5P/MHUh8YOWuLKhB4OhNiIM8A2o15pg7vR6wprIdlHir0/12NLJXIULFCbM3ZLd2Ln/esKURj3WU7yn8KnTxHRVZuPnrRQx5FMORgLdP3f4FPv+O5euiRexSRojYl1IcEAkFAAmuJQnTWX35lsdMHcqCbeVZqulQkthQrRayhmTusNWja5p5ffD1f//33FEfWE5JAIAhI4JlKP0h8Bgv7GWVCncea2svg2rzjGnyZeWXV0MxWbqEWo8VcdhEqAq0uWBTEoOrY9/Hf47M/+XKdnzpQRGWCJRIIAhJ4eouEJ3MnBqGVosbCWEskFmuKgj5jwIop3hyqOJ+j6jm5I0sweFQ8fV+TKlF0doFnESFX5eBXPoNSuJEEaGUr01VxIb6h/fNKvVKPLLEB8R6iCo19D/CZ/+dVtNM2GuIhgSAggaczIxXLa581RNct3S2LKmosdz05zxf3tfjSUy3UK195qsldT7VpKIzVqtx2xTD1xJ60xkNViazFmoVk26g2wAe+Y5Om89OvOMPVGwX+8l1v1nRyb38RN3iazq6M9VGKgTGmfzwROR0vxNZSi4uPi/NCNnOEL//n71H1vrguwRAJBAEJPD0tEMF7d0IcQQWMghiLQREjRT6VLVw5FlDJUZeXkwLllAuvLNUDKvU6iOw6E/FAhAf+6aO6++7PENmIhXRaQzfLYAUjDouzx4arMVPNLhaHisWIwUsEGKYf/DK7P/MRlRAPCQQBCTzTkCUSU/xfTiiYO5+sKjmNsC2MH5ydOqQf+0/vKFxqojgMQjHeNnfg1CIrEG9YnKarqgxFMVPdHI8ldw6Doyo5Rhyqnnt+80eYPrhHF+pIAoEgIIHACghYseh2Ok0+/M43Yst84Wps6XYXFvJMFfFapBpfdOtDEAFTCqeIJ/OWvHRVqYKxFowFhCiu8C+//FbS9lyoUw8EAQkEVgwtFuwvfej9OrPn4dJ1ZBivQLooXpN7JcevXC3IIhtMUaoGuq600kQQVSq213zR0HzqMb7x57+tIbU3EAQkEFgx9YCHv/D3+sU/+HWgiMMMJEpsi1YiskhAVnJZLjx2nl69YD2GzPvS0QcqggGqUSEiYiKeuOO3eOLTH9HQLysQBCTw9FusocgsWvJY+J5ezNdd7jsqNOemX/HX//FH+um+cVw0bvQKUbRQ8a0KmdMVKybsqwjgy+hQ1y00dCxlBCNCZMGLYG3C/X/wS7RmJu8oDjtYIoEgIIGnASKGPKog8YkPFyeYOC4ysI5b9PxZvj388SIhBlg+C0sE9j/ytX+cnp9nOs3oek8SK+CxVtgyEJP3RUNodLnoHXmXfDDKGemF20pJPbhFQZjepaoawfucRuaZnZpmZs+jb1JCv6zAM4PQTPEZwK2verPc+qo3n/T7rwP+5N1v00c/89fY0hoQYD71VGpnLiLeewwLNRvjO24grg2c9Ocf/tJnUJfjTBGwbnRgfS1mQz0id457GxkjRayaZjdHJFmxwu++ACjERjjWzRmpxmWWWPG9rhpy5xAs3ufglSc+91dsuemF4U0XCBZI4OmFnuL/xneWWUQ9Z+XcUgtLdum6rCun97WvfvxPQQSDYNQgRhgfsOQo6weEZpaXVoAyn7Fi0QVVxRjpmxqxCMYXrrUcIXdCxwlZ5lAviCjGWDCw+x8/FN5ogSAggacfcsr/y8V5kZPs7h9/4Cs6ve9JBMEaqESevbN54TJSpRIJYsqCQoVm5k8igxfH+lAFY4SBGAYrlp1jFQ7NdvEIuSjeaz/lVwAjDhBcY4ZdX/oHXaljDQSCgASecXz2j/8bSbWOGiUxhRUivVYo5cCqgWhhBolzjty5fibUxbdCoBZDFBXutFY3Z7AS0c19ObFQlghOVMZMbDLAY3/7v0v5CHGQQBCQQOCC0mrMs+++LyM2QlHiyJDmnqF44e3ogeEK+LInlQCt3KzYkiyiZBrRzh2ZF5wKiUC+2KjQBbWJbHHs3gpzTz5Oc27yDgkGSCAISCBwoXb1RVru0Scf0k57HoBIIRHDoZZny5Dtr8sKDEaGwThiKC4aGbbzs4zJnM+xlh2GBVMct0DFKjMdhxFFzEJtSq8uRIxBvKc9c4T5A3vfFAyQQBCQQOCC7eoFFeHhu79AnqYISj2OEHEcbXu2DBbz0wXFohxuK0OJMBALo4lhOIlYkX4mpcWjgJTBdNFiJkieOTy2n+bb+1mAWlSUQ2Z5xr6vfzHc8EAQkEDgQi/Mc3MzzKSeua7HqdDOBWuUqnW9AnWeaijDcWGLKBDHlmqkrOyuvqiNEWP61saGgYTJVhcR6KrSVaXjHB3nyDzM5p5G1zE/PRludiAISCBwoWnOTIEquSqZ88ylnokhiyuDHUbgwaNdRqsRXov02bGKnlCouNJWiCpULBxpFvXpuSpplpE5Xzy8x2lxEj7Pwo0OPO0JhYSBFaM3Y7A/P6TsEp86z47RCgv9EwXU0ewWQXQQLh9L6EfTV1JERHBeaWYOp5bIOjJdKDIEi2iRPSZSCIsXyKcOhxseCBZIIHAhd/QAaacoWvz/2zv3KMvuqs5/9u+cc1/16OqufibdSboDJCExCaSTpjuBBDAKzhgQFRR1HMcZdOksHcdhZI1rZlzLwaWMf/gaRZilozgyCLMYI7IABRUSICEhgSSQBNIh6XT6ka531X2d8/vt+eOce6uqu57dVdVV1fuzuKvDrVv3nnvOqf397d9+5VlKDh/yCvTZRYfTKbyKIhqhFzGtKcjZYghxp9hQ8mek6OIrCBP1CbvghgmIYay0hLQmRos5VXkVdxCIXLaIe7EeqyrOErwZAhdaU3a5DRMQYxNzkbrGzmx5LiJogDLuonoY53Puzm2YqN2xjpMvnbD7yzABMTa3Q6CifOezf6lj33kacdGarNcnJ0a73kZEQEWInJvH48gDH532ImuuE0UNSHfcr5zrUc1FaFsQ3TABMTaLs6HztWdynHnsC6RDx1d93kZnpnmWtrsGeKwd2FHN4xui0w0MEUfbK41MmGx5JppZEQ9ZSycj73eVZcpIU6lnbZptaKvPxU/n7y5Wnxi2m84wATE2mZDIHDeAW6PboPhsn+arcycw0lL2FhXonZ8HhGu2lThZT0lDhjrlufEmsWhXhNbqgAVltBVAldQ7TjU8/Uk0twMyYx5hOjlmN5ux6bE03ksEEeG5Bz+lkeR1FfXhU2gIIMrY8aOsTX5s/hlTY8OFeAnj9Ra7+/oB3/15QDmwpcSDx+u5EVdlqAlN74jd2lWDCIrHUW+nSKGxJ6c8d++vEPTs89sRnPxf32ow7fJZTxPDBMTY4Hzh134MF0JXUDrr/Wq1ujY2rlsomFtfr4FKuUw58jQz6e6giQpePFduSRhrepwTnCovTra4or+0Np5akZY72UhxUkRkVBmoxLlMqOIigfZsfVA6sRJhqjlFT6XHbjxj02JbWJcQUblKVKoQF/9GpQouKSNrvIU1OZ5v7zSDctWA4IOblQKLgA/KZf1lQrfflHCmnuWNFld5GyuvOxECykRWtHZUpeGVA1vibsU8em5rFec6zReFrF5/yO46wwTEMFaQtJUH0VtZ4Kq+ctH+41y12VIO+JCv6tMQODnpOT2VEa1yRpZo7g2NN5UzjYxGJoAjqJBErpi0WGxb6dl/UJ15IY7W+NAtdrUNExDDWNElfm51I4G+suCZkYHVMeKi9JcS1MU0Uk8alKDw0ItTTGX5z1ctJUuUlkaH8YQAACAASURBVCrPjrYgCM0QGE89p+pKbynqTiLM04vPlr3CY3JCfXTIrrVhAmIYK8n4yAgi4FxE5ASnck52mCJ49Xzv/gqpRnSL9HB89cQUgc48jpVVEVUlqHB0uD3dTBE4NeU5src29+fp9HFMx5aEtN2wi22YgBjGii/yySf8xY5uod7sn0//e8feCgHXNejDDc+zIxlO8s5TF76dpV2vSEQ4NZnRTEPhYQSaqXLL7hrlKHRf1x045QCnaEcBO40inaN+5kW70IYJiGGsFK12g0gAFaqJK0RgAZkR2FmL2NdXyicSiiJOeORkgy+/WCcNeT3JhQTWVfMS8yzAEy81+dZICyXPFmt7iGNha1XyIpqZs9Cd0FuOqcRSTCgMuK7PImRNq0Y3TEAMY+UEpNl4lwBTIWOwp7yk3wmq3LonYbBcQlVIM48AL4xnfPLpCYabfo6+VEtwOjq+hMBkqnz5+BRD9QAqTLYDGY7xlnJ4T222W9T9T8EJlJOI/kpMkkTdvygRoTUxYhfcMAExjJUia6d/DDDVduzrXdrtpyKkwXF4XxVUaAeX11poINPA574zxeOnm9TbgVimB0Ghna2p6VRcZTqDKnZQzwLPjLb56okmIeRBcBEl88KZqYw79lVpqT8nyD/bg8l/pydxbK0kbKkK4iLq4zaV0NjcWCGhsaaMDp1kew80UtjZ42YMkZqfIuGJSqS85do+Pnu0yVCjjRC6nseTQy2+eaZJfyXhhp0lLutxqMQzXQ0AogBeAqfqyrfONJlsKU6ESuLy5pIImQ84ifi+AxUyVSiC/PNJSOcYFIgFtlZjBhIlUQuiGyYghrFi9JYi7ti3hU8eh8hB5nVWe/eFPRHwXnnjVWWeGI549MUpyvF0PZ+IMNlMue+5jFLs2NMTE53VIl4lYqKZ0sryoj+RvHAwaD5NcLQVuHZ7hWsGI9KQK5fI0gr1c6HL56jjHDJuabyGCYhhrBjp6BATPrCrWsErSxaPwpSD5DGRV24Truwb4ONPjlGJAl0Zkry+xHvPqbNmOqkqURQoCUQu3+gq5h3SUmGy6XnTy/qpxYEQ5LybE+et5wXfbtkFNzY1FgMx1pQQmmQp9FfPP/1WRQhE9CSBH7m+n2t2VBjsKdFWoZ5JsbXVfXX3IQLBg4jDO2UiDUykijqhHZQfuLaPnrgQowvsDSbOkY6dtgtumAdiGCuFNlu0VahG7rwFRLoeheCccsP2ShE5r/LceIuHT3qm2m164zypdlb2lAZG2hk1F3Ho8jJXDcR85tttXru3AoSiEclKfFHFB8GHMMewLMMwATGMZdMaO00ahJ6qFLXkF2CuZXpbq1AHrhyo8rIBz2i7ymjLn+NiB4WBsmNLxYHCl15os71X6C0XxYAr2JU40oyLMkbRMExAjFWh6CKrIhdtSkUaoFaSVRiVIaCBFKEngZ4kntc7SIMy0XRMtD13763hfVjRiYyKoFmLtN0kqlpLd2NzYr71JcR1P/rLuFovod2Ei7Qwbo0Pk62DAUuJc3zxxSkOX14m8/lc9pXWaQg480AMExBjM3Dz239JfujDT8tVb/s5nHT6N62tMfdpi6CrPn59YePuhC8832Bff4laIjMM/soSMo/P2u+yO88wATE2Pgpo4DXveq/c/f4vsu9NP4Y6QX1Y9Y/t3nBZm3omxHkT9zX/+hAYagSa3vPqnaVCzFb+OFRAGxPUh078sWJeiGECYmx0/RBFiPLRrHv2y2t+7n3y/R964md6D1y3altaIkKrMcU3v/C3+onf+Y/6D/f+FaU4InbRGjs/iqgSu4gvHW/wmstqtIJn1SJBClmrwQPvfWfXvzEhMTYborZHe4k6I8UQJ4GHP/Ae/aePfYjRyeZ0Ww5V9g8mDFYiFrP0qnk7kKF6NssgD37XQV469gKTx56iUipRKyfUyjFJHBPW+L5TIEK571ibbVXhuu0l1mAwLiHL2HX4zRx69/+UiLUWTcMwD8RYjZVDN/1VueVdvyk7b7yd4P15exmNLH8vF4XuQ9opO1ydK3ZtZefWXvpqJSLn8BrWPIgvqpxuKDjhhh0JYS3OsCoujnnpwb/jhQc/rSYehgmIsVlcEGbm0UrhFfhQPJQlB9ljB5/89hSNTBgoJ91H9tyj+MZkPiO8MKqIzK7dWKMvG0eOB4+3ePXumDRId/Ts6mqIdDevvvY7P8/U6EsP2Y1nbCasDuTSdUEYOnlM3//jd9BOM6qR5/CVW2ZtLeUNQBZfOIuCi6TbRl2L7obiYlgH+/4O4fPPN7l2MKESuQsvYDwPD03bTb76h+++5bX/6X/ZvWeYB2JsdA9EERfhswxNW/nIcQmzHk7CklbqmcJNgzHNLPDcSCvvcjtTqS4yXuFlAzGvGIzz2R0X4ZjERUwdfYTW1LgF0w0TEGOjeyDCi099jeAzyoljW63Tm0rmeCyiRUA1cYTgSUM2/eQ68rZ29kakXlclZXdJeo3Snphg6uSzKipY8ophAmJsaE48+TWC91Rj2N3jCJvUpnVbZV3E6kVRIWR1jj/890UoyCLqhgmIsUGYa8UbxckMb0EQ0YXX0HruAywzdUnnXxSRiBf+4aPrz0MzjPPEguiXCCLCf3/3v9Ghbz0GKNXYUW2OAsJ4Wzk63GJLaXaL9VSV4WbAB3jl9gpxlAek89WzEtTxzaEGXpWSBNza5DZtUC8ozzybfPYxWq0pymVrsGiYgBgbiNPHj3HqW4+DCD0lYVe1lA9ZCpBm0I7oth9XhEyVepbPtQgS0O5s8HwYlIjSbAeyAHHJ4cTkYxE3sEhc8FC202GYgBibZoXcdVVy7yMLDLc8O6sRTgTRXFuCgBZleGFWOZ6Jh2GYgBgGkCpMtgIHtpRJnOBUihoR7UqOiDIrccswDBMQw5jTS5FOdXrHURGSWElEcGJOiGGYgBjGPKhKHucQGG97TtYDsXOUIodTT+btHC2swHlPLtNZwwTEuLQMnyjtABPNjLF2ICCUXCASBwQziksSYKjtfQU9Pf2scTcVwzABMdbCyCkibpZtS33gdEOppymlWEii4ufqKNKx7MQtemIBDVz+xh/tirJhmIAYm8CyTQ88SgO0QkojzduTnGoGvPckkdCbREUT31w0Ol6HAzwCa9AkfcOeZQGJSlx+6935mVYx3TVMQIyN7nHkzQjaQRhpFkEMEWIHldiRSKCU5O0Hgxa9pEQKTwUSHHHkaPqMti2r50VQSn3b6dl15dXmtBkmIMaG9Tdyn0NwTolEcc7hyFAERz7foxS5vLXJjOCGSFFAiOLEkUTgiFjPw1o7QreQaZ/x4m6h5MqecwWf0Xvgeiq9A0ftLjRMQIwN6G0oimOw4thadaiLEIUQFBVHT9Rp8if44Oa5YTLiOMpFRxe2xxdfOKQQPcWrm9836PRvESVZjWFXCiGucssv/YH5HYYJiLEx+a5Dr+PRL93PaDMQhhVoFcZW2N0X05sIC3UZV2B7T0JvpgSys8xwbqA15J5LuChTN2Z7SyF4QhC+NdLs1q+cjRfhuZE2DqG3ItyxtzevaVnRY3Ec/JX3U632d4XNMDYD1o33EvI+Xn/PD1OKA5FAJBA7IXZC5AACToTILfAoigVF8qFMTqYfHZvoUNBonbRVLDwQdN7vhiqJy2M+JecQt7LHrVnKzjt/kL23vEkw8TBMQIyNiIhwxYFXyCtuvTNv5idnC8xSLeLiL/HBr7s0VVlAWDvq51Yh/oE4svEhNFiVpWECYmxcHwSA2+64iyzNZptJUYIuzeYHDQu+UCV/rAcFUdVZM97nfs30sTq38ttuEkUMf/VzfOfzH1NLvTI2GxYDuXR8EAC2772KoH5WJbSo4HVpxs3Lwh8hCu3Msz46uwtBpFgnzV36nX/v3DtIug29VsbQK0UWWwggkd2ChgmIsbEpV3vyVflZNjKEACxu5EIo3IxFDO362OvXcwT0XA8kdF9ZkpVsK6xF9aBw23v/H7uvPWjuh7HpsC2sS4zB7TtyEVjA1C7DoZnzTdZPTYigQReUBFXJB2R5z44bD7H1+iNE1T58u0UI2fzBIc09jOAzQtpiZi2MquLTlO0338ndf/L1u/dcd6uJh2EeiLHx2bptO17PFYNsib8fgkeK4sG5NCUIhCBEbn10C1ysxDH3vAQNnssOvpEjP/EL0poa/c0Tj933K8/97Z8w8vj9OHFzv7PEXHbXD9Fz4Aae+dNfgyjqfueb/v37ufL2eySKImucaJiAGJuDam9vYf9mFswJusQkISVGJSBhsYK7dVNR2PWK5jqitAjcqCq9AztwLqLaN/ieA0fe8p4DR97C1PjogZEnv/RMJDOlSAhJlT033yVRIaojX/mMnnn0PvqveRU3/9vfY/DKa/KimuI8iymIYQJibHS2bd8lGtA8yt0xagHVpQV5QwggG2fnM1VQcTgNc0tIyLexVJVarfecH9f6B4723PZmOVdI83dTVZyLOPKrfyEvPf+kbr/ylRKXKlYwaJiAGOuPxQzTUhr1ufjcJbkPoZg4uJgHonSSizaGeVx4VOK0EARq27Yv2Y/qPN+5Fq5UZffLX931U0w8DBMQ4+KKBXnF96yUWxEmRk9pc+jkLKVQDWw7cJPEMw2XTttPLarHAWq9PbkQdYygCr4wfIsJUF4vskgWlsB6kZi8fu/cY+k844PmUwJDoG/bjgvTKWyryjABMdbN2lkYevE5rQ8dY/hbT3DiiQd56bH7mTr5LM7NseUkkW59+c3svukwu244xMCe/fTvu0ZK1RozR0RVe7bQnhydZfxEwaPdWefzHVEowtILZjaFQNEfZf2eW1WCyyeYaKGYSal2QdfKMExAjHXFX7znndReOsr2au599CH079w+/6bM0FGGPvcMZz77IaZaGXf9t4/o5a96wyzrFlcqtCfnMoIRSxkKJYWQyDwLcV1Hvd0z5kvjlW6/LilEr2frVlMBwzAB2QQUy/ys2UCDx0XJOYZ6HrtYGEchpG1w7pwdpauveSWnKpVZW1WqMNCX5PHxQgHEOYZOHsen7cJNgRghDWF6MiF5+aGT/OeKEFTJimITUZAltAjp/H7nuwddOAW307cqb8U+OyNM0a6IqYZuS3cNUO4boNq3pfMqmr0BH6AxOU5Prdcm9BrG8jx5tbNwMXWiE4uYw2p99e8+pp/4rV/klsGEUrJ8qzZZb+H2vIzved+9V1d7pgcZNepTBJ/NaZRnWuJytcrP/rM79MwzjyMSUUmUnT0x7qw+JX2JY0tZiuC65O9TvE1QZVs1IXYLezT95STv5Fto3XiznafYzn3T0pM4yhG0szyOoWeJ4VgaCICE3M8YanqarYzDP/GLvPGnf0VC1nxXnpcVfaDIpjpQ6xs4agpiGOaBbBDxKOZWAF/72P/Q9qN/i8zwNL755NPQalEtldFl7rGrKkkSM/rcEzz5iT95pjKwk3jXAWToGFLpZf/h7xXnFr/8kXRW9AHF5VP7VKadJNF8LG6YdoA6XoGiecpvAHR+BVFXdKsqBEwVMiSvNZnr9QJBAtptvZIPypKZ7ps60ECYkTwQQiAulSlXakDtA2cFc3KBNfEwDBOQDeH+FXlWf//BX9eRT/wBu2rxrG2b1pgHAs45vA/LNm4iAi7h6Q+/j6mpFr2v/0mShz6C230NV9z6PbjS0oXOzfzsGVtN5zw34//MmogrC52Hed5mkd9b8JiL35WlfrBhGMvGemFdLO8DRUW47//8nt7/wd9ge62UGzxx3UfQmVb6/KydAM65vBusixAXIy7CJcmSft+TxyO8Kj7kYhI035rSrtzZNqhhmAdirKWC8ODHP6hfeP+vsbW/nxjl7FppHzyxi/I6hfMc1a0I1Ujo3VJCvv05okSQ8eM88t53qFuk57pzEa/vP4O/th91eVAdn5GqI1/bO54fa5AG5bwP0DAMExBjybrRtbPfeegfQR19Jeas4EsVoljy2AN+WV5It55DAjGOSuJg6nT+FukEE49/fknvsydysCVmOupRYrihxX8rr9rVw/HJFo00LJgQcN7nS+c4czLPmT1LxDq/KzJzK22+tu7WesQwTEDWOd0gswgvPvEwItCXSLeYjVkeiCIdoxiWpR8o+f6k0Kkyl2njKSDLHHCkFK3PRaklSj3N+56kwbOrltBOM16s+9lxaRFEA2GR2yz3vXRGvCLP5ApRIGa6J6ErRFR1xuSSYtvPqRAkdKvkI8mLIkU9QSJilCRKaI4OM/zis5o2WwQRfEjZdeV1ksQ28Mkwlm3PLI135V0MJV/NNodOaGnbLnEynaDaEYTTx76tf/S26yn19HHzjoRqcq4B+8qJBs7F3LK3j8yHZa2QFSVLA0ONBlsSR29p5QykDzDeLoIhRY2FiNAOgZOTKVmnX7xAkIjeWOiNZd5ISRI7amWZMcUwr2OZ7uJS1KV0GyLmW3oatBvcb2eQdvMMtKiudwiBySzQ9IrDkaVNtNXkVDOQtZWpesZvPTYplWqP3buGYR7IxXcxBGHk+Sf1+d/4IWT75dp/w2sZuO0eBg7cKAi0m5M8/PE/wSUlnHh64iphDvOaBaESh9mNc5d1LIWxXeE1QuyUklNaQZBCPBSl5ByX95d4aSpQb2d0Zv3lg/5cHsuZR+6EmV6YTo+D7bTd0jA7YF/8E2ZtPc34rkrepr0oblRVPAGXlCApU4o8mgRKboKkWut+qrUkMQwTkIvO6P1/RWhMIieOMvLC0wx94g+R2hbtOfgmGsOneeyTf4NLymyvxMw3QDx06ii6BnGZe06ABLfitQ1Bhd6S0Pa+W3/R2TpyKuzqiRiNhLoPuBAIAaZST60c4Tr5tbM8Gu1uj8GMKsTpbo/zDHXKtwODjxAJlCKZqePUswxPhBOlkuTHOdkKeFV6nFKqRmTawwd/5h79l7/7EalUat1YlImJYZiAXDQm7vs4WkqQABInREmChpT6l++l6ZVMElQ9O3qrhHkCHNcNVnhxyueFe8u1ZcXrq4mjr7SyhlCK4sJyHNHMdIYxF5woraDUShBnEWFGprjMPx2WRhamt5/O+SpKVJj0ub6o9xlz1Rx6XDFxcFqWypEjCwGNHLE6pFaifuzrfP3TH9Zb/vlPSRSdp2AbxqW44WIxkPNjZtbO2bbm5LNP6b0/8zou31plSymiHTxN7+ktlSg7ONNI+drJKcTB4T2VYvXNnIaz4R2lJD6vSgtRj9OwKhlGWmwrjbUgkAfURYSW1zytlwAazTox82/FaRFIn18LRaQYCjXXWaLbjn72B+Sf3xGR/DwU4qIer1Gx7aWkrSZtjXj563+A677vJ9ix/1r6tl82vTlmWVqGYR7ISi7DR59/UidfeIo9R75fohkr7ecee4AXJlKen0gpS8Q1O2MGSo7JZpNRdZyYaKGibCnF+eaPzL9VVIkC+PYFHOfqDDeSvEsicaS0fb6F1Q5K6jtGPJpeyc/wNOZWwhmvn0dexCmzGl6d/R07icbBcVZnRfIkhmJrqhATR1S0xFdCCGipQgy8cP+9HLv/XuL+bdR2HtAb3vxOrn3zO6UcJ+aZGIYJyMpx4v6P8+yH38dj4nTgxjvZdftbGLj21Tz/1S8UabRC26UMliskUV7NreppecWpo3eRraXpWo51qaCA0psIIz4gknemqiar93nREmaMeJSFKuOzEBG0mOneeV3sqOJINeBD8Rn1CdJnH+FLv30f3/jUn+tdv/Db7HrFq8TNMaDLMC7ZdbRtYZ0fIXi+/Os/ohOPf7HY4gho8ESlCicawvGROpMtz9aeErfvLeHb7bynlcTc98IUIsI12xK2laMNu6LN481KM1NameCWMEvkgm5Wt7QTFRa5p4NCqnPP71WFzGfkgwwjQPDB4+MSg694NXe++/fZuvtKMU/EMExAlm80i1qOLG3yd//qJnUzJjN1ahakqNmbagX2f9eN3HTbqxg9cZKhF47x7W8/x4PHxogEDu4ukbiNb4WyAPU0FHUaq3Xei55eS3ztzJG987h2tLzO2+U4U8Vn3WxgcErqlXqzxat+/D9w0w+8i95tu8RiI8aljG1hLXsjJd9SOv7013Vq+CTlWh+xA5eHkvOq6WKvPiGwb+8eEGFgxw4G9uzmq8dGQUfY1lvh2gMvI9NsU8hqGjpt3FcPn3naaXtJ12hsdIxmu7Xg4K2yE5ph7jqZEoJ3Sr1VbHQFIRahv1rmsY/8Lo/+zZ/z6nf+sh5++8+aehgmIMay9m149lN/RohKNDOPIETOEYnSW45QDYSgSJLwj5/8FL0DW9i7fz+XXbGPZ45+h8QJN1y5i+27BvM27ZtCWFf/A9rtlKmJ8cVfKhB8hh9O5/cOFIgg0yzf8prjdRHQECWETiJCPvuk5IShsWEe/b9/xC33/AuScm1GDYthmIAYi2x/nLz/XuIozqunVfHBE0TYVqvkrc5Vmcwy0uBoTtZ5+uuP8fgjj1MSIfOel195+aYRj449XtX3DzpTvxfV+FISL5x6Wzwda0SbbO6QhgiJy4scQzH8S6QY4euE+vBpxk8d0+1XXC2qsc2iMi45bB7IeXD8qUc19u1poyOCItSKVE8nghPHS5MZJydaTLQ8mQr1LAVgoK+HWuKw8NNydFu6BnwplMvlpf0BRAvLYhK7c2aziwglhKxV54l//GsQEw/DBMRYbBVcWPyRb3w5tzwy29iUyi6PhxQV1VNtTzvAaCPj1HjKeCNf+l422M9C9R/GhVMplfLrNd15fs5HR0BkHjUvuY7DMvsXK4mAxDz6sQ/ayTYuWWwLa5mrYO89Z558CJ1jz/uBY+NEEnF5f4ldfRUeO92kv+SolWJKzhMQxAX6a2WmJqfshC4THzzNZrq0lZFzqBMyWWSbUAWfD3efYx8ub4DinOQFkjN+noigBCZOPMfRxx/SAzcctOWAYQJiLLijAZrRfvFpIlE0wMx6tMwLDe956qUGj56okyKMtZTRZpM4irisJ0KlRCzKmdFxO5/LJIRAu9ViKREXESEjwmfZwqFtAU+ED3MLjZO8U1nLz0747fQDa8UJJx65nwM3HLQLZJiAGAsbm0azyQc+8zDXDla4YkuJWgzlWAgh0MrAufzxwmjGWLNNb6VEf0nYXcprDmI8/T0VxOIf5+UBdqvzF79U01uE82Zi6az/Pjvg3vlxPnMkzHofBWLncHHMC099rXjOqtMNExBjAb702U/qybE6wy3lgRMtarHQVxK298XsqZSoRp6RFmTek4aI0WZgrO7ZP9CHqjK4pY9YBG8R9FVn8cJDAdF59UVECSpEMyaRzGrV6CASx/ALTxfvZuJhmIAYC/Dpv/wQsYtwRQfZegpTKZyYzHhUG1STmFdsjbn1siqph+P1jLGmoxaDz5R923sJph2rjgKRLuytqCiRCk78vALT6SqAEyTMzCFWSuJQFVpTkzQak1SrvXbiDRMQY35+/N+9h/3X38B9n7mX73zjKZJqRJKUcE5wCKn3PH7G8/hLEEeOe/b3kJJncCVxxGBfBWsfs1YeyGIegRAAh4OF2skLOFXCDB9DNc+2E4G0MUU6Oa6Vaq8l1hmX1t+YnYJlrGpVufnw6+Tn/8v75MP3PSl//Y1j/Px//i1efv3NbBncgYtiQvD5froDHwKHXzbAZf1lFGWgt4xVK68dIm4R+Zj937rge537y1K0kW83pqhPjtmVNcwDMRYyIrNNxM7de+UdP/vLvONnf5nhodPDQydf3PrYg1/kvk/fywOf+zT7tlQ4NdJgeKqNKGytVVmXAyUW8Yg6P00i191+OzsqIFBU4J/77fKdpLUPMIsLSzrfuYch+AVepuIKf6XzfYuxtwJpo067PjnngsMaLRqb2ibadsoF2t4ZmTdnG4w//a8/p0996i/Y2VNBgFcf2M1gX2XdGRUF0kzAha69dWeJg3PCP3zzRfb2l4hcPhPdieuKxnAr42U7txHFc1pfnLgL7helqrSajSVV8ItAo9FgdLK+6PlWhYYP6NyThRGU8VYxLEtmnDRRhhqe1AduuuN1XLH/agjKVMuz5/bv5+W33W3qYZgHYiy0DSLneCgdIXnDT/4S9fERWg9/BokitvZW12X1uQ+BP/vKc3ifW+ZKJFy1ZXrGYhQJu2sJPbRoNFIEaDUEp3SHPGnwPPJsc864QwjKy3dvY3BL7wXFf0Tyor4lv4e4JQuWqEMkW/D1bo5rLyKIE0498gXcU18hBOVMo0HlilfCbXfbH4hhAmIs39ApypUHXi5btaUnCCRxicn6JJqtv/btKsLwVIs0y1fu1Qi2V0r5DHIRYic0Y6W37Ka9rRmrcxGhHDleqqdFzcS5AtJsNhkJ6YUdJ5CFsOTXajtDi8aWi73WBwjzjtXNM+5SdHb9juaDxLzCqbrj8j4hUyiVKjz7+b9h6MVj+rqffPfVPf0DR+2vwjABMZZFo9Xg+KP/BFHM1powOTm5LhsoClLMGw+sRnxGgEa7RfAXnrOxHA8meMGHpW2bBVWyMN+CAII6fMjOWSgIgg/QDJ4QFK9KyQkj33yAZ5/8Joff/nPP0D9gW1mGCYixPKN8/Otf1I7R21JJWK8NFOPIEZGRSrRKHg4kUQSsZVC5mAzJ4voxU5PmPbyip9acx19MP0w7M0MAnMNF1qXX2NxYGu8qktanUALlJKYcsX7bt+tafIRehNyzlZq3InNuzeU6IWghVGnmMcUwTECMFTHK1915j2y75mZ6I0VDMfKW9aki+TbWar33xflGa/fBnWFXltFoXFrYFtZqmZSi7uGdv/3xq08/9dAzY08+yOnPfhhaE+tPPETpSUrUfYpotwNhbhZXwCZKdwV/VgR6rSz8IoZdmPYi5vy+wgwPZOZxK5HT4lwpmYfYlmSGCYixEkZTVan1DRy96uB3Cwe/m88/+YA2TzwL68wLqftAWm5QjcsIUI4d1apDJQICaWMK1bx07nxsvgIjky0Gtm6btUp3cYRb5vtFS94iUtRHxFW/FF+8xQAACCdJREFU6NlWhTjzC76m3YJyNSMER3vsFM7FqEY0M08symAtoq/s8loRwzABMS58ZT+j/XcI9O+/nsO/+r9lvW1jZWn6rlvGxv64I2wCJC7PMIpLJX769dfT8i2u3lIiOq9iQGUi7uEHf/+fPtqqT/xw57mkZ9vVLo6PLk9Ql/HZy9lSWjTQrkBEq11/6KNvu+qWrf09OAHVCNE8YK8aoQS78Q0TEOO890vydh5nrZRFIK70kKzDjq2lKh+o9W/7wHw/b6RBW74woqrTHlRnu6t4TlXnjvEUhrzUv/3tpf7tG/vyRu6gaFDR0B1dnLdpAa8BKKr5VclL288VImtvYpiAGPMuZUXg1PCoTtTbs5JyotvewTPHT2+oSGsUOW59y09xWU2o1hzurAaFkZsWicHW3ElIqoorl/nOS+Pq280NfXXTNKPvjf+apFrJBURnDpkK1LyQaSDyQsWVeGG0wZn0tIagXH3ZoLjI/uSMTWTtLHNk5T0QED79D/frpI86oegNTW705tl4my5JX/zM+M0RIJAont4ek3Mu/YylRD6GF1Uy73nTHa+S/p4e+xMxzAMx5vdAIG8l7kQ2x3ZFsRUji+nmYmfGbZIUpZlbU7rweXDFRCqxKWLGJsSSDg3DMAwTEMMwDMMExDAMwzABMQzDMExADMMwDKPAsrBWnDyX04eMVnt1OtCuXmaXkPmM9ZzZLYCLlt8CZclXb5W+fJp5LGPeMAExlmDiYHDHboaePTbniNcLNkbtNlmWrvj7+naLuw7dSBRF6/j0Ck9+6yjPnxqmXKmusFFWKpXaqqQbe591x/8ahgmIsSAuctR6avPOkbggaitcjCaO+sQI33v3Hb81uHXgPev93F69fz/3f/lBfeqFEbZv37bCXsPquAlZ5vOiQsMwATGWZIfyplir9OYr8z6KkDYmeOvdd0itWt0QvZpUldtfc5vIA1/RY8N1yuXKuj9u270yNuVC2U7BJapvCiDUJ8Z4w2tu+uhGEQ/IY0CqypFDB+WygQpDQyP5c3ZZDcM8EGMtjDC0mnXe9j2vleoGEo+zReS1hw9J/MBX9LnhJpVyybrdGoZ5IMbqeR55llh9cow3HrrpoxtRPM4WkcOHDsrlW0oMD4+YeBiGeSDGKskHiNBuTPHWu18rtQ0sHud4IkcOSbSBYiKGYR6IsYE8D3LPY2Kc17/mxoc3g3icLSJHDh2UPVsqXU/EYiKGYQJirIiR7cQ87pAdg4MHN9sKPRcReN2RQ3LdvkGarTbC6hUGGoZhAnIJeB7TMY833Hbjw9VN5HnM54kcPnRQLutPCk/EbnHDMAExli8e5ELRakzy1rtfKzu2bz7PY15P5PbXyLX7Bmm1GjOE1DAMExBjKeqBE8fo8BnecOimTRXzWKoncuTQQdndX2Z4eNRiIoZhAmIsWT1EmRgb463fffvVl4LnMZ8ncuftr5Hr9m2j2WwjqHkihmECYswrHaqIRIyODHPXrdczMDBw9FJNaZ0ZE9mzJWFkZMxiIoZhAmLM7XfkQjExNsxb33Dk7r2XXyaXej3ETE/kmr3baDUbHaW1G8YwTECMQj1w4hgbGeLOW7+Lga0Df2/FdLM9kSOHDsqu/hIjI6NgMRHDMAExCv0QZXxslLe88cjV+8zzmNcTueuOw3LtXouJGIYJiFHEPBxjo8PcdfDSjnks1RM5fOig7O6PLSZiGCYgl7B4FDGP8bEh3vr6I3fv23u5eR7L8EQsJmIYJiCXqnrgxDE+OsydBy3mcT6eyJFDB2VnX4mRkTGLiRiGCcglpB9FzOOeNxy++grzPM7bE3n9aw/LNXu3WkzEMExALgHhKGIe46Mj3HnwlRbzWCFPZFdfxOjouMVEDMMEZNPKRx7zGB3inrsO/8wVe/ea57FinsgRecXlW6djIoZhmIBsNoI6br3plWzdNvABE4+V9UQO33ZQtg5ssRNiGCYgm9cLieO4a/iMlRMRCETOzqlhmIAYhmEYJiCGYRiGCYhhGIZhAmIYhmGYgBiGYRiGCYhhGIZhAmIYhmGYgBiGYRgmIIZhGIZhAmIYhmGYgBiGYRgmIIZhGIYJiGEYhmECYhiGYRgmIIZhGIYJiGEYhmECYhiGYZiAGIZhGCYghmEYhmECYhiGYZiAGIZhGCYghmEYhgmIYRiGYQJiGIZhGCYghmEYhgmIYRiGYQJiGIZhmIAYhmEYJiCGYRiGYQJiGIZhmIAYhmEYJiCGYRiGCYhhGIZhAmIYhmEYJiCGYRiGCYhhGIZhAmIYhmGYgBiGYRgmIIZhGIZhAmIYhmGYgBiGYRgmIIZhGIYJiHHRkHmeVzs1lwhqV9xYJ8R2ClbPziugqiv8th4Rt4Cw6AIiYyx4biXKr5uuvGlWVeJIVurW6rwpiF1r4yL+zazGH8tGJMs8n3vgEY1LlRX5A2+2U7wPq3KsSRyTJNE5z+8Y6OGGl10lYkZlQSan6nzlG8+oziG0zVZKCKtz3crlErGTFfEcBvtr3HTNAbvQhnkg62JbQAMvDY1S6+ld98eapik0zn2+ktiO5NIWC9mB8fFJwhp7ammarth7lZwt/AwTkPXljiHk/5MNevzG8k7YxrzSOqfvZBhrjy1ZDcMwDBMQwzAMwwTEMAzDWOdYDGROLEBp19kwDBOQZZgSdSCycU+Jpe8u71xt1GstopYxYZiArDuD0m7T8Gc27HfwvYldyCUQRdHRZmMSn2Ub12/q22MX0rj4dtMKCYs/SlWyLCUEv4ENY0Ic25pgKdc6TVNUN+61jqOEyK61cZH5/9kcXYhOX0mUAAAAAElFTkSuQmCC;" vertex="1" parent="1">
          <mxGeometry x="304.93" y="240" width="150.14" height="125" as="geometry" />
        </mxCell>
        <mxCell id="7-Hqb6H97nyhliVRLqJK-9" value="" style="shape=cylinder3;whiteSpace=wrap;html=1;boundedLbl=1;backgroundOutline=1;size=15;shadow=0;" vertex="1" parent="1">
          <mxGeometry x="180" y="335" width="60" height="50" as="geometry" />
        </mxCell>
        <mxCell id="7-Hqb6H97nyhliVRLqJK-13" value="" style="shape=cube;whiteSpace=wrap;html=1;boundedLbl=1;backgroundOutline=1;darkOpacity=0.05;darkOpacity2=0.1;size=10;" vertex="1" parent="1">
          <mxGeometry x="320" y="350" width="20" height="40" as="geometry" />
        </mxCell>
        <mxCell id="7-Hqb6H97nyhliVRLqJK-11" value="" style="shape=cube;whiteSpace=wrap;html=1;boundedLbl=1;backgroundOutline=1;darkOpacity=0.05;darkOpacity2=0.1;size=10;" vertex="1" parent="1">
          <mxGeometry x="330" y="360" width="20" height="40" as="geometry" />
        </mxCell>
        <mxCell id="7-Hqb6H97nyhliVRLqJK-12" value="" style="shape=cube;whiteSpace=wrap;html=1;boundedLbl=1;backgroundOutline=1;darkOpacity=0.05;darkOpacity2=0.1;size=10;" vertex="1" parent="1">
          <mxGeometry x="420" y="360" width="20" height="40" as="geometry" />
        </mxCell>
        <mxCell id="7-Hqb6H97nyhliVRLqJK-10" value="" style="shape=cube;whiteSpace=wrap;html=1;boundedLbl=1;backgroundOutline=1;darkOpacity=0.05;darkOpacity2=0.1;" vertex="1" parent="1">
          <mxGeometry x="320" y="342.5" width="120" height="35" as="geometry" />
        </mxCell>
        <mxCell id="7-Hqb6H97nyhliVRLqJK-167" value="" style="rounded=1;whiteSpace=wrap;html=1;fillColor=#647687;fontColor=#ffffff;strokeColor=#314354;" vertex="1" parent="1">
          <mxGeometry x="500" y="240" width="50" height="110" as="geometry" />
        </mxCell>
        <mxCell id="7-Hqb6H97nyhliVRLqJK-168" value="" style="ellipse;whiteSpace=wrap;html=1;aspect=fixed;" vertex="1" parent="1">
          <mxGeometry x="505" y="248" width="40" height="40" as="geometry" />
        </mxCell>
        <mxCell id="7-Hqb6H97nyhliVRLqJK-169" value="" style="ellipse;whiteSpace=wrap;html=1;aspect=fixed;" vertex="1" parent="1">
          <mxGeometry x="505" y="300" width="40" height="40" as="geometry" />
        </mxCell>
      </root>
    </mxGraphModel>
  </diagram>
</mxfile>
